# xmcd CD database file
#
# Track frame offsets:
#	150
#	13189
#	26805
#	44630
#	58110
#	70189
#	83504
#	98813
#	110224
#	124336
#	140016
#	151884
#	165696
#	177471
#	191765
#	203906
#
# Disc length: 2909 seconds
#
# Revision: 1
# Processed by: cddbd v1.5.2PL0 Copyright (c) Steve Scherf et al.
# Submitted via: CDex 1.70beta2
#
DISCID=ed0b5b10
DTITLE=Dwight McCall - Kentucky Peace of Mind
DYEAR=2004
DGENRE=Bluegrass
TTITLE0=Tennessee Border
TTITLE1=Perfect After All
TTITLE2=Kentucky Peace of Mind
TTITLE3=A Better Man
TTITLE4=Where You Gonna Hide?
TTITLE5=My Caroline In Carolina
TTITLE6=I Cried Myself Awake
TTITLE7=Yesterday's Gone
TTITLE8=There'll Be No Blind Ones There
TTITLE9=Behind These Prison Walls of Love
TTITLE10=She Did It For The Love
TTITLE11=Getting You Out Of The Way
TTITLE12=The Love That We Once Knew
TTITLE13=Help Me Lord
TTITLE14=Wildwood Flower Blues
TTITLE15=Handsome Molly
EXTD=YEAR: 2004
EXTT0=
EXTT1=
EXTT2=
EXTT3=
EXTT4=
EXTT5=
EXTT6=
EXTT7=
EXTT8=
EXTT9=
EXTT10=
EXTT11=
EXTT12=
EXTT13=
EXTT14=
EXTT15=
PLAYORDER=
